# xmcd
#
# Track frame offsets: 
#        150
#        17025
#        35475
#        54075
#        73650
#        90300
#        102150
#        118425
#        142425
#        155100
#        169950
#        187050
#        215175
#        235350
#
# Disc length: 3353 seconds
#
# Revision: 0
# Processed by: cddbd v1.5.2PL0 Copyright (c) Steve Scherf et al.
# Submitted via: ExactAudioCopy v1.0b2
#
DISCID=d70d170e
DTITLE=Fernando Goin - Antes del Diluvio
DYEAR=1997
DGENRE=Country
TTITLE0=El tipo
TTITLE1=Tren sin rumbo
TTITLE2=17 Blues
TTITLE3=La Gitana
TTITLE4=Algunos dicen
TTITLE5=Llueve en la ruta
TTITLE6=Otra vez me toca a mi
TTITLE7=Senderos
TTITLE8=Reina de Diamantes
TTITLE9=Toque de amor
TTITLE10=Montañas azules
TTITLE11=Si alguna vez
TTITLE12=El viajero
TTITLE13=Antes del diluvio
EXTD=
EXTT0=
EXTT1=
EXTT2=
EXTT3=
EXTT4=
EXTT5=
EXTT6=
EXTT7=
EXTT8=
EXTT9=
EXTT10=
EXTT11=
EXTT12=
EXTT13=
PLAYORDER=
